<svg id="svg2" xmlns="http://www.w3.org/2000/svg" viewBox="0 0 600 600"><defs><style>.cls-1{fill:#daff00;stroke:#0a0a0a;stroke-linecap:round;stroke-linejoin:round;stroke-width:21.28px;}.cls-2{fill:#0a0a0a;}</style></defs><polygon class="cls-1" points="15 537.12 300 45.74 585 537.12 15 537.12"/><path class="cls-2" d="M396,527.57h6c3.31-2.06,9.48-4.38,14.48-8.12,2.63-2.07,6.52-2.54,7.16-3s12.73-8.19,14.48-10.26,5.09-6.21,7.24-7.8,4.61-2.54,5.33-3.74c1.26-1.45,4.15-5.87,6-6.12.64,0,2,1.35,3,1.51a23.51,23.51,0,0,0,6.92-.56,12.54,12.54,0,0,1,4.45-1.19c4.63,1.28,9.44,7.49,13.93,9.15,1.27.4,5.17,1.67,5.8,2.62s8.2,5.49,9.95,6.13,7,2.07,7.55,2.78a20.89,20.89,0,0,0,6.69,4.38,13.94,13.94,0,0,1,4.69,2.54c4.13,2.24,9,3.06,13.52,5.17,4,.83,9.31,2.87,11.78,5.81a2.12,2.12,0,0,0,1.35.8h6v8.43H395.08v-8.55Z"/><path class="cls-2" d="M57.87,507.41c34.72-18.33,55.39-28,55.39-28,12.58-6.13,30.49-11.51,42.25-8.88,13.17,3.87,13.94,7.75,18.59,21.7,3.49,9.87,5.66,14.95,5.88,16.87a8.32,8.32,0,0,0,.46,1.91l3.74,9.89c3.87,7.75,5.42,6.2,14.72,6.2h7.75c0-4.65-2.32-3.88-6.2-9.3-1.55-2.33-.77-11.63-.77-23.25,0-4.65,2.32-4.65,2.32-21.7,0,3.1,0,8.53,1.55,9.3,12.08,4,72.29-5,83.69-6.2,7.75-.77,14.72,29.45,17.05,36.42,3.87,9.3,3.1,12.4,5.42,14,.78.78,12.4.78,17.05.78,0-4.65-3.87-4.65-6.2-8.53-.77-.77-.77-15.49.78-26.34.75-6.82,4.46-12.18,3.91-25.45.15,2.3.83,5.21,1.51,4.52,45.35-5.56,81.9-45.78,69.74-86-.77-5.42,10.08-.78,16.28-7,.77,0,.77-1.55.77-1.55.78-1.55-10.07-4.65-10.07-4.65s9.3,1.55,12.4,0c.77-.78,4.64-8.53,3.87-9.3-5.42-6.2-8.52-6.2-14.72-7-7-.43-17.63,6.65-22.48,13.18-7.75,9.3-7.75,34.09-14.72,42.62s-20.15,10.84-39.52,7-44.17-22.47-79.82-20.15c-39.52,2.33-79,17.05-101.51,27.12-9.92,4.77-22,10.48-33.72,17.17,0,0-16.38,10.8-32,23.67-14.15,11.67-27.25,19.16-39.68,24L28,514.58C39.94,513.52,50.46,511.32,57.87,507.41ZM407.35,361.3a1.55,1.55,0,0,1,0,3.1A1.55,1.55,0,0,1,407.35,361.3Z"/><polygon class="cls-2" points="257.59 294.78 257.31 294.86 258.94 300.93 281.9 294.78 239.95 318.99 239.71 319.13 242.85 324.58 285.04 300.22 268.23 317.02 272.68 321.47 289.48 304.66 265.27 346.61 265.13 346.85 270.57 349.99 294.92 307.81 288.77 330.76 294.84 332.39 300.99 309.44 300.99 358.14 307.28 358.14 307.28 309.44 313.36 332.11 313.43 332.38 319.5 330.76 313.35 307.81 337.7 349.99 343.15 346.85 318.79 304.67 335.39 321.27 335.59 321.47 340.04 317.02 323.24 300.22 365.42 324.58 368.56 319.13 326.38 294.78 349.06 300.85 349.33 300.93 350.96 294.86 328.45 288.83 368.56 288.83 444.35 288.83 440.65 282.3 368.56 282.3 328.45 282.3 350.68 276.35 350.96 276.27 349.33 270.2 326.38 276.35 368.56 252 365.42 246.55 323.24 270.91 339.84 254.31 340.04 254.11 335.59 249.66 318.79 266.46 343.15 224.28 337.7 221.14 313.35 263.32 319.43 240.64 319.5 240.37 313.43 238.74 307.28 261.7 307.28 212.99 300.99 212.99 300.99 261.7 294.84 238.74 288.77 240.37 294.92 263.32 270.71 221.38 270.57 221.14 265.13 224.28 289.48 266.47 272.88 249.86 272.68 249.66 268.23 254.11 285.04 270.91 242.85 246.55 239.71 252 281.89 276.35 259.22 270.27 258.94 270.2 257.31 276.27 279.82 282.3 231.44 282.3 231.44 288.83 279.82 288.83 257.59 294.78"/></svg>