<?xml version="1.0" standalone="no"?>
<!DOCTYPE svg PUBLIC "-//W3C//DTD SVG 20010904//EN"
 "http://www.w3.org/TR/2001/REC-SVG-20010904/DTD/svg10.dtd">
<svg version="1.0" xmlns="http://www.w3.org/2000/svg"
 width="321.000000pt" height="321.000000pt" viewBox="0 0 321.000000 321.000000"
 preserveAspectRatio="xMidYMid meet">
<metadata>
Created by potrace 1.11, written by Peter Selinger 2001-2013
</metadata>
<g transform="translate(0.000000,321.000000) scale(0.100000,-0.100000)"
fill="#000000" stroke="none">
<path d="M2993 2481 c-57 -26 -127 -93 -151 -144 -11 -23 -29 -85 -41 -137
-35 -152 -49 -185 -91 -224 -48 -43 -93 -56 -195 -56 -102 0 -172 17 -326 78
-241 96 -328 116 -484 115 -313 -1 -719 -118 -1126 -324 -198 -100 -324 -182
-417 -272 -84 -82 -124 -141 -146 -216 -21 -71 -20 -105 4 -183 39 -127 153
-253 292 -324 130 -66 306 -103 405 -84 72 13 193 69 251 117 48 40 102 116
102 145 0 24 12 23 28 -2 11 -17 23 -20 97 -20 56 0 85 4 85 11 0 6 -14 27
-31 47 l-31 35 4 141 c3 78 8 148 12 156 5 12 36 15 179 16 123 1 231 8 379
27 114 15 214 27 222 27 30 0 66 -77 127 -263 33 -103 66 -190 73 -193 7 -3
46 -4 86 -2 l74 3 -32 36 c-32 36 -32 38 -32 140 1 57 5 124 11 149 5 25 15
73 21 107 12 61 13 63 48 69 73 12 178 47 251 85 195 101 327 266 366 457 13
64 14 88 3 159 -7 46 -10 87 -6 90 3 3 29 10 57 14 46 7 89 31 89 49 0 4 -10
12 -22 18 -23 11 -23 11 3 11 28 1 48 20 67 64 11 25 9 30 -14 52 -50 46 -124
56 -191 26z m103 -58 c-10 -10 -19 5 -10 18 6 11 8 11 12 0 2 -7 1 -15 -2 -18z
m-2227 -986 c60 -29 73 -50 126 -200 l45 -127 -38 19 c-104 53 -186 7 -216
-124 -7 -29 -7 -28 43 18 28 26 59 47 70 47 27 0 91 -57 91 -82 0 -57 -78
-131 -208 -195 -66 -33 -85 -38 -147 -38 -59 0 -81 5 -137 33 -177 87 -295
293 -244 426 39 102 210 202 411 241 84 17 145 11 204 -18z"/>
</g>
</svg>
